<?xml version="1.0" encoding="utf-8" standalone="no"?>
<!DOCTYPE svg PUBLIC "-//W3C//DTD SVG 1.1//EN" "http://www.w3.org/Graphics/SVG/1.1/DTD/svg11.dtd">

<svg width="210mm" height="297mm" viewBox="0 0 210 297" xmlns="http://www.w3.org/2000/svg" xmlns:xlink="http://www.w3.org/1999/xlink" version="1.1" style="stroke:black; fill:none; stroke-width:0.5pt; stroke-linejoin:round; text-anchor:middle" font-family="Helvetica, Arial, FreeSans, Sans, sans, sans-serif">

<g>

<rect x="87.5" y="136.0" width="5.0" height="5.0" fill="black" stroke="none" />

<rect x="87.5" y="146.0" width="5.0" height="5.0" fill="black" stroke="none" />

<rect x="87.5" y="156.0" width="5.0" height="5.0" fill="black" stroke="none" />

<rect x="92.5" y="141.0" width="5.0" height="5.0" fill="black" stroke="none" />

<rect x="92.5" y="151.0" width="5.0" height="5.0" fill="black" stroke="none" />

<rect x="97.5" y="136.0" width="5.0" height="5.0" fill="black" stroke="none" />

<rect x="97.5" y="146.0" width="5.0" height="5.0" fill="black" stroke="none" />

<rect x="97.5" y="156.0" width="5.0" height="5.0" fill="black" stroke="none" />

<rect x="102.5" y="141.0" width="5.0" height="5.0" fill="black" stroke="none" />

<rect x="102.5" y="151.0" width="5.0" height="5.0" fill="black" stroke="none" />

<rect x="107.5" y="136.0" width="5.0" height="5.0" fill="black" stroke="none" />

<rect x="107.5" y="146.0" width="5.0" height="5.0" fill="black" stroke="none" />

<rect x="107.5" y="156.0" width="5.0" height="5.0" fill="black" stroke="none" />

<rect x="112.5" y="141.0" width="5.0" height="5.0" fill="black" stroke="none" />

<rect x="112.5" y="151.0" width="5.0" height="5.0" fill="black" stroke="none" />

<rect x="117.5" y="136.0" width="5.0" height="5.0" fill="black" stroke="none" />

<rect x="117.5" y="146.0" width="5.0" height="5.0" fill="black" stroke="none" />

<rect x="117.5" y="156.0" width="5.0" height="5.0" fill="black" stroke="none" />

</g>

</svg>

